<svg xmlns="http://www.w3.org/2000/svg" viewBox="0 0 1600 900" preserveAspectRatio="xMidYMid slice"><defs><linearGradient id="g" x1="0" x2="1" y1="0" y2="1"><stop offset="0" stop-color="#06111d"/><stop offset="0.55" stop-color="#0a2538"/><stop offset="1" stop-color="#031018"/></linearGradient><radialGradient id="r" cx="75%" cy="18%" r="60%"><stop offset="0" stop-color="#1d6a8f" stop-opacity=".55"/><stop offset=".42" stop-color="#0e3a55" stop-opacity=".25"/><stop offset="1" stop-color="#000" stop-opacity="0"/></radialGradient><filter id="blur"><feGaussianBlur stdDeviation="12"/></filter><pattern id="grid" width="72" height="72" patternUnits="userSpaceOnUse"><path d="M72 0H0v72" fill="none" stroke="#67e8f9" stroke-opacity=".08" stroke-width="1"/></pattern><pattern id="scan" width="4" height="12" patternUnits="userSpaceOnUse"><rect width="4" height="1" fill="#fff" opacity=".05"/></pattern></defs><rect width="1600" height="900" fill="url(#g)"/><rect width="1600" height="900" fill="url(#r)"/><rect width="1600" height="900" fill="url(#grid)"/><path d="M0 705C260 650 374 725 560 650c230-92 360-45 575-112 170-54 270-145 465-115v477H0Z" fill="#020c13" opacity=".8"/><g opacity=".26" fill="#98f8ff"><rect x="108" y="165" width="260" height="10" rx="5"/><rect x="108" y="190" width="185" height="8" rx="4"/><rect x="108" y="215" width="330" height="6" rx="3"/></g><g opacity=".13" stroke="#67e8f9" fill="none"><circle cx="1220" cy="300" r="180"/><circle cx="1220" cy="300" r="105"/><path d="M1040 300h360M1220 120v360"/></g><rect width="1600" height="900" fill="url(#scan)" opacity=".8"/></svg>