<svg xmlns="http://www.w3.org/2000/svg" viewBox="0 0 1600 900" preserveAspectRatio="xMidYMid slice"><defs><linearGradient id="g" x1="0" x2="1" y1="0" y2="1"><stop offset="0" stop-color="#06111d"/><stop offset="0.55" stop-color="#0a2538"/><stop offset="1" stop-color="#031018"/></linearGradient><radialGradient id="r" cx="75%" cy="18%" r="60%"><stop offset="0" stop-color="#1d6a8f" stop-opacity=".55"/><stop offset=".42" stop-color="#0e3a55" stop-opacity=".25"/><stop offset="1" stop-color="#000" stop-opacity="0"/></radialGradient><filter id="blur"><feGaussianBlur stdDeviation="12"/></filter><pattern id="grid" width="72" height="72" patternUnits="userSpaceOnUse"><path d="M72 0H0v72" fill="none" stroke="#67e8f9" stroke-opacity=".08" stroke-width="1"/></pattern><pattern id="scan" width="4" height="12" patternUnits="userSpaceOnUse"><rect width="4" height="1" fill="#fff" opacity=".05"/></pattern></defs><rect width="1600" height="900" fill="url(#g)"/><rect width="1600" height="900" fill="url(#grid)"/><g transform="translate(940 115)" opacity=".36" stroke="#22d3ee" fill="none"><circle r="235"/><circle r="165"/><circle r="94"/><path d="M-235 0h470M0-235v470M-165-165l330 330M165-165l-330 330"/></g><g transform="translate(112 580)" opacity=".72"><rect width="455" height="145" rx="22" fill="#092131" stroke="#36d6d0" stroke-opacity=".45"/><path d="M35 65h310M35 95h235M35 36h105" stroke="#b5f7ff" stroke-width="8" stroke-linecap="round" opacity=".34"/><circle cx="398" cy="72" r="34" fill="#12c9b7" opacity=".25"/></g><path d="M0 742l150-24 220 22 150-60 170 28 220-98 238 44 210-76 242 68v254H0z" fill="#020a11" opacity=".82"/><rect width="1600" height="900" fill="url(#r)"/></svg>