<svg xmlns="http://www.w3.org/2000/svg" viewBox="0 0 1600 900" preserveAspectRatio="xMidYMid slice"><defs><linearGradient id="g" x1="0" x2="1" y1="0" y2="1"><stop offset="0" stop-color="#06111d"/><stop offset="0.55" stop-color="#0a2538"/><stop offset="1" stop-color="#031018"/></linearGradient><radialGradient id="r" cx="75%" cy="18%" r="60%"><stop offset="0" stop-color="#1d6a8f" stop-opacity=".55"/><stop offset=".42" stop-color="#0e3a55" stop-opacity=".25"/><stop offset="1" stop-color="#000" stop-opacity="0"/></radialGradient><filter id="blur"><feGaussianBlur stdDeviation="12"/></filter><pattern id="grid" width="72" height="72" patternUnits="userSpaceOnUse"><path d="M72 0H0v72" fill="none" stroke="#67e8f9" stroke-opacity=".08" stroke-width="1"/></pattern><pattern id="scan" width="4" height="12" patternUnits="userSpaceOnUse"><rect width="4" height="1" fill="#fff" opacity=".05"/></pattern></defs><rect width="1600" height="900" fill="url(#g)"/><rect width="1600" height="900" fill="url(#grid)"/><g opacity=".55" transform="translate(105 145)"><path d="M0 90c120-75 250-75 370 0M52 154c85-52 181-52 266 0M112 214c45-25 95-25 140 0" fill="none" stroke="#20e0cf" stroke-width="16" stroke-linecap="round" opacity=".35"/><circle cx="184" cy="282" r="22" fill="#20e0cf" opacity=".55"/></g><g transform="translate(920 210)" opacity=".32" fill="none" stroke="#8bd3ff"><rect width="450" height="300" rx="20"/><path d="M35 58h380M35 116h300M35 174h340M35 232h240" stroke-linecap="round" stroke-width="8"/></g><path d="M0 705C270 622 455 725 640 645c215-94 405-35 615-135 135-64 220-113 345-92v482H0z" fill="#01070d" opacity=".82"/><rect width="1600" height="900" fill="url(#r)"/></svg>