<svg xmlns="http://www.w3.org/2000/svg" viewBox="0 0 1600 900" preserveAspectRatio="xMidYMid slice"><defs><linearGradient id="g" x1="0" x2="1" y1="0" y2="1"><stop offset="0" stop-color="#06111d"/><stop offset="0.55" stop-color="#0a2538"/><stop offset="1" stop-color="#031018"/></linearGradient><radialGradient id="r" cx="75%" cy="18%" r="60%"><stop offset="0" stop-color="#1d6a8f" stop-opacity=".55"/><stop offset=".42" stop-color="#0e3a55" stop-opacity=".25"/><stop offset="1" stop-color="#000" stop-opacity="0"/></radialGradient><filter id="blur"><feGaussianBlur stdDeviation="12"/></filter><pattern id="grid" width="72" height="72" patternUnits="userSpaceOnUse"><path d="M72 0H0v72" fill="none" stroke="#67e8f9" stroke-opacity=".08" stroke-width="1"/></pattern><pattern id="scan" width="4" height="12" patternUnits="userSpaceOnUse"><rect width="4" height="1" fill="#fff" opacity=".05"/></pattern></defs><rect width="1600" height="900" fill="#06111d"/><rect width="1600" height="900" fill="url(#grid)"/><g opacity=".23" stroke="#7dd3fc" stroke-width="4" fill="none"><path d="M-20 246c170 12 230 100 396 78 126-16 198-92 318-84 132 8 184 116 324 100 106-12 156-87 282-74 110 12 162 82 320 60"/><path d="M120 850c30-180 140-246 295-318 205-95 175-213 304-285 177-99 288-4 430-103 74-52 125-116 241-130"/><path d="M-40 562c170-58 270-24 407-74 150-55 208-174 367-172 147 2 204 104 341 98 152-7 223-140 408-128"/></g><g fill="#14b8a6" opacity=".70"><circle cx="425" cy="520" r="12"/><circle cx="811" cy="356" r="12"/><circle cx="1115" cy="415" r="12"/><circle cx="1015" cy="680" r="12"/></g><g stroke="#14b8a6" opacity=".38"><path d="M425 520L811 356L1115 415L1015 680L425 520" fill="none" stroke-width="5"/></g><rect width="1600" height="900" fill="url(#r)"/></svg>