<svg xmlns="http://www.w3.org/2000/svg" viewBox="0 0 512 512"><defs><linearGradient id="g" x1="0" x2="1" y1="0" y2="1"><stop stop-color="#2dd4bf"/><stop offset="1" stop-color="#2563eb"/></linearGradient></defs><rect width="512" height="512" rx="118" fill="#07131f"/><path d="M256 76c91 0 164 73 164 164 0 112-96 196-164 196S92 352 92 240C92 149 165 76 256 76Z" fill="url(#g)" opacity=".24"/><path d="M153 188c0-33 27-60 60-60h86c33 0 60 27 60 60v44c0 55-45 100-100 100h-5l-52 52v-63c-29-10-49-38-49-70Z" fill="none" stroke="#eaf7ff" stroke-width="30" stroke-linejoin="round"/><text x="256" y="265" text-anchor="middle" font-family="Arial" font-size="88" font-weight="900" fill="#2dd4bf">190</text></svg>